<svg xmlns="http://www.w3.org/2000/svg" viewBox="0 0 753 407" font-weight="normal" text-decoration="none" width="753px" xmlns:xlink="http://www.w3.org/1999/xlink" font-size="15" font-family="sans-serif" font-style="normal" version="1.1" height="407px"><title>Temperatura máxima y mínima promedio en Guadalupe Victoria</title><defs><clipPath id="plot-sample-bounds-1"><rect x="75.8" width="601.3" y="0" height="385"></rect></clipPath><clipPath id="plot-sample-bounds-scaled-1"><rect x="758.3" width="6013.5" y="0" height="3850"></rect></clipPath></defs><g transform="scale(0.1)"><path d="M758,2584l17,-1l16,2l17,6l16,-1l17,-1l16,1l17,2l16,1l17,1l16,0l17,4l17,-2l16,-4l17,-1l16,-1l17,-4l16,-3l17,-1l16,-3l17,-2l16,1l17,1l16,-1l17,-1l16,-2l17,-2l16,-3l17,-3l16,2l17,-2l16,-2l17,0l16,-2l17,-3l16,-4l17,-4l17,-4l16,-1l17,0l16,-3l17,-4l16,-7l17,-1l16,-3l17,-2l16,0l17,1l16,3l17,2l16,-2l17,-2l16,-3l17,-6l16,-3l17,-4l16,-1l17,-1l16,-7l17,-4l16,-4l17,-1l17,-4l16,-3l17,0l16,-1l17,1l16,-3l17,-6l16,-6l17,-8l16,-8l17,-3l16,-3l17,-4l16,-2l17,-3l16,-6l17,-4l16,-9l17,-8l16,-5l17,-6l16,-5l17,-2l17,-5l16,-5l17,-7l16,-3l17,1l16,-2l17,-2l16,-5l17,-3l16,-3l17,-9l16,-5l17,-3l16,-2l17,-4l16,-5l17,-4l16,2l17,-4l16,-4l17,-6l16,-5l17,-4l16,-2l17,-4l17,-1l16,-3l17,-2l16,-2l17,-3l16,-4l17,-3l16,-2l17,0l16,-2l17,-5l16,-1l17,-1l16,-2l17,0l16,-4l17,1l16,-3l17,-2l16,-3l17,-1l16,0l17,-1l16,-4l17,-1l17,1l16,3l17,1l16,0l17,-1l16,1l17,-3l16,-1l17,-1l16,0l17,-1l16,-1l17,1l16,-1l17,-2l16,-1l17,-2l16,-3l17,-1l16,-2l17,-3l16,-1l17,-6l17,-4l16,-4l17,1l16,1l17,-1l16,-1l17,0l16,-1l17,-5l16,-3l17,-2l16,-1l17,-1l16,0l17,0l16,1l17,-1l16,0l17,2l16,1l17,1l16,1l17,0l16,1l17,2l17,2l16,-1l17,2l16,0l17,3l16,3l17,2l16,3l17,1l16,1l17,2l16,2l17,1l16,2l17,3l16,0l17,3l16,0l17,0l16,2l17,0l16,0l17,-1l16,0l17,-1l17,1l16,-1l17,-1l16,0l17,-2l16,0l17,-2l16,0l17,0l16,1l17,0l16,-1l17,-2l16,-3l17,-2l16,-2l17,-1l16,-2l17,-1l16,-1l17,2l16,-1l17,-3l17,-2l16,0l17,-3l16,0l17,2l16,4l17,-1l16,0l17,-5l16,-4l17,1l16,-1l17,0l16,-3l17,-2l16,-1l17,-3l16,0l17,1l16,2l17,0l16,3l17,0l16,3l17,-1l17,3l16,5l17,2l16,3l17,5l16,5l17,4l16,2l17,4l16,3l17,0l16,0l17,2l16,6l17,8l16,8l17,6l16,8l17,4l16,6l17,6l16,7l17,7l16,4l17,6l17,8l16,8l17,6l16,10l17,3l16,8l17,7l16,4l17,4l16,2l17,8l16,5l17,7l16,8l17,9l16,7l17,6l16,7l17,6l16,4l17,3l16,2l17,3l17,0l16,5l17,6l16,4l17,4l16,4l17,5l16,4l17,0l16,1l17,2l16,-1l17,3l16,4l17,0l16,0l17,1l16,4l17,-3l16,3l17,0l16,-2l17,0l16,1l17,0l17,1l16,-1l17,0l16,2l17,4l16,4l17,3l16,2l17,2l16,1l17,1l16,3l17,3l16,0l17,2l16,3l17,3l16,5l17,4l16,2l17,4l16,2l17,2l16,1l17,1l17,3l16,3l17,2l16,2l17,1l16,2l17,1l16,2l17,3l16,2l17,-1l0,-332l-17,-2l-16,-2l-17,-1l-16,-1l-17,0l-16,-1l-17,-1l-16,-3l-17,0l-16,-1l-17,-2l-17,-3l-16,-3l-17,-2l-16,-2l-17,-1l-16,-2l-17,-3l-16,-4l-17,-3l-16,-3l-17,-2l-16,-2l-17,0l-16,-1l-17,-1l-16,-3l-17,-1l-16,-4l-17,-2l-16,-3l-17,-3l-16,-5l-17,-5l-16,-6l-17,-3l-17,-3l-16,-5l-17,-5l-16,-4l-17,-6l-16,-3l-17,-3l-16,-5l-17,-4l-16,-5l-17,-5l-16,-3l-17,-4l-16,-4l-17,-4l-16,-2l-17,-3l-16,-3l-17,-3l-16,-4l-17,-3l-16,-4l-17,-7l-16,-2l-17,-3l-17,-1l-16,-5l-17,-3l-16,-3l-17,0l-16,-5l-17,-4l-16,-2l-17,-3l-16,-3l-17,-4l-16,-4l-17,-3l-16,-1l-17,-2l-16,-2l-17,-2l-16,-4l-17,-3l-16,-2l-17,-3l-16,-3l-17,-4l-17,-3l-16,-2l-17,-3l-16,-2l-17,-2l-16,-1l-17,-2l-16,-3l-17,-3l-16,-3l-17,-2l-16,-1l-17,-1l-16,-1l-17,-1l-16,-1l-17,-1l-16,0l-17,1l-16,-2l-17,0l-16,-1l-17,-1l-16,0l-17,1l-17,0l-16,1l-17,0l-16,1l-17,1l-16,0l-17,0l-16,0l-17,0l-16,2l-17,1l-16,1l-17,0l-16,2l-17,1l-16,3l-17,1l-16,0l-17,2l-16,1l-17,1l-16,1l-17,1l-16,0l-17,2l-17,3l-16,3l-17,3l-16,2l-17,0l-16,2l-17,2l-16,2l-17,1l-16,1l-17,0l-16,2l-17,2l-16,2l-17,0l-16,0l-17,0l-16,0l-17,0l-16,1l-17,0l-16,1l-17,0l-17,3l-16,0l-17,-1l-16,-1l-17,0l-16,-1l-17,-1l-16,-2l-17,-2l-16,-3l-17,-4l-16,-2l-17,-2l-16,-3l-17,-2l-16,-2l-17,-3l-16,-3l-17,-2l-16,-3l-17,-2l-16,-2l-17,0l-16,-2l-17,-1l-17,0l-16,-1l-17,-2l-16,-1l-17,-3l-16,-3l-17,-2l-16,-1l-17,-1l-16,-2l-17,-1l-16,-1l-17,-2l-16,0l-17,0l-16,1l-17,1l-16,0l-17,0l-16,0l-17,0l-16,-1l-17,1l-16,1l-17,2l-17,2l-16,-1l-17,0l-16,0l-17,-2l-16,-2l-17,-1l-16,0l-17,0l-16,1l-17,0l-16,0l-17,0l-16,-1l-17,0l-16,2l-17,0l-16,2l-17,2l-16,-1l-17,0l-16,-1l-17,0l-17,2l-16,1l-17,1l-16,0l-17,1l-16,3l-17,0l-16,-1l-17,0l-16,1l-17,1l-16,2l-17,4l-16,4l-17,1l-16,0l-17,3l-16,0l-17,0l-16,2l-17,4l-16,3l-17,2l-16,3l-17,1l-17,1l-16,2l-17,3l-16,3l-17,2l-16,1l-17,1l-16,4l-17,1l-16,3l-17,3l-16,1l-17,2l-16,6l-17,3l-16,3l-17,2l-16,4l-17,3l-16,0l-17,2l-16,3l-17,1l-16,5l-17,7l-17,5l-16,1l-17,2l-16,2l-17,3l-16,4l-17,4l-16,3l-17,3l-16,4l-17,4l-16,4l-17,5l-16,3l-17,5l-16,3l-17,4l-16,1l-17,3l-16,3l-17,3l-16,4l-17,3l-17,2l-16,2l-17,4l-16,5l-17,4l-16,6l-17,3l-16,2l-17,3l-16,5l-17,4l-16,4l-17,1l-16,2l-17,2l-16,2l-17,4l-16,2l-17,4l-16,3l-17,3l-16,3l-17,3l-16,3l-17,2l-17,3l-16,5l-17,1l-16,0l-17,2l-16,2l-17,3l-16,5l-17,3l-16,1l-17,3l-16,0l-17,0l-16,1l-17,2l-16,0l-17,2l-16,1l-17,3l-16,2l-17,1l-16,1l-17,-1l-16,1l-17,0l-17,1l-16,-1l-17,-1l-16,-1l-17,-1l-16,-3l-17,-2l-16,-2l-17,0l-16,0l-17,-2Z" fill="#4646b9" fill-opacity="0.188" stroke="none"></path><path d="M758,2486l17,-1l16,1l17,2l16,0l17,1l16,0l17,0l16,0l17,2l16,0l17,2l17,0l16,1l17,-2l16,-1l17,-1l16,-3l17,0l16,-2l17,-3l16,1l17,1l16,2l17,-1l16,-3l17,-3l16,-1l17,-2l16,-2l17,-2l16,-2l17,0l16,-2l17,-2l16,-6l17,-4l17,-4l16,-1l17,-4l16,-2l17,-5l16,-4l17,-3l16,-3l17,1l16,-2l17,0l16,-2l17,-1l16,-1l17,-3l16,-5l17,-6l16,-5l17,-2l16,-3l17,-3l16,-5l17,-3l16,-2l17,-1l17,-4l16,-4l17,0l16,-3l17,0l16,-2l17,-3l16,-4l17,-4l16,-6l17,-2l16,-5l17,-4l16,-3l17,-5l16,-6l17,-7l16,-4l17,-6l16,-5l17,-4l16,-3l17,-3l17,-4l16,-4l17,-4l16,-3l17,0l16,-2l17,-2l16,-4l17,0l16,-3l17,-7l16,-5l17,-4l16,-5l17,-3l16,-5l17,-3l16,-1l17,-3l16,-3l17,-2l16,-3l17,-4l16,-2l17,-1l17,-1l16,-1l17,-2l16,-2l17,-3l16,-2l17,-4l16,-3l17,-3l16,-2l17,-4l16,-1l17,-2l16,-2l17,-2l16,-2l17,-1l16,-1l17,1l16,-2l17,0l16,-3l17,-2l16,-2l17,0l17,1l16,-1l17,1l16,2l17,-2l16,0l17,-3l16,-3l17,-3l16,-1l17,-3l16,0l17,0l16,-1l17,0l16,-1l17,-3l16,-3l17,-4l16,-1l17,-2l16,-2l17,-3l17,-1l16,-6l17,0l16,2l17,1l16,1l17,1l16,-3l17,-2l16,-2l17,-2l16,1l17,0l16,0l17,1l16,3l17,2l16,2l17,2l16,1l17,1l16,3l17,0l16,2l17,2l17,2l16,3l17,1l16,2l17,2l16,4l17,2l16,2l17,2l16,1l17,2l16,1l17,2l16,3l17,3l16,2l17,1l16,0l17,1l16,1l17,0l16,0l17,0l16,1l17,-1l17,1l16,1l17,-2l16,0l17,0l16,0l17,-1l16,0l17,-1l16,-2l17,-1l16,-2l17,0l16,-2l17,-1l16,-1l17,-1l16,-2l17,-2l16,-2l17,-2l16,-1l17,-2l17,-3l16,-2l17,-3l16,-2l17,1l16,0l17,-2l16,-1l17,-3l16,-4l17,0l16,-1l17,0l16,-3l17,-2l16,0l17,-1l16,-1l17,1l16,-1l17,-1l16,1l17,0l16,-1l17,-1l17,1l16,4l17,2l16,0l17,2l16,4l17,2l16,3l17,3l16,3l17,0l16,1l17,3l16,2l17,6l16,5l17,4l16,3l17,4l16,5l17,5l16,2l17,4l16,5l17,6l17,5l16,6l17,7l16,8l17,5l16,7l17,6l16,3l17,5l16,4l17,5l16,5l17,7l16,4l17,5l16,6l17,8l16,8l17,6l16,5l17,4l16,6l17,3l17,3l16,2l17,3l16,2l17,7l16,7l17,2l16,3l17,3l16,4l17,-1l16,0l17,4l16,1l17,3l16,0l17,3l16,3l17,2l16,2l17,2l16,4l17,4l16,2l17,0l17,0l16,0l17,3l16,3l17,1l16,4l17,4l16,5l17,4l16,2l17,2l16,3l17,4l16,1l17,3l16,1l17,5l16,3l17,1l16,1l17,2l16,4l17,2l16,2l17,1l17,2l16,1l17,1l16,1l17,0l16,2l17,3l16,2l17,0l16,2l17,0l0,-160l-17,-1l-16,-1l-17,0l-16,-2l-17,0l-16,-1l-17,-1l-16,-2l-17,-1l-16,-1l-17,-3l-17,-4l-16,-3l-17,-2l-16,-4l-17,-3l-16,0l-17,-2l-16,-3l-17,-2l-16,-3l-17,-2l-16,-2l-17,-2l-16,-2l-17,0l-16,-3l-17,-3l-16,-2l-17,-3l-16,-4l-17,-3l-16,-4l-17,-4l-16,-4l-17,-5l-17,-5l-16,-3l-17,-5l-16,-4l-17,-4l-16,-3l-17,-3l-16,-2l-17,-5l-16,-5l-17,-3l-16,-5l-17,-3l-16,-4l-17,-4l-16,-4l-17,-4l-16,-4l-17,-5l-16,-3l-17,-5l-16,-4l-17,-5l-16,-3l-17,-3l-17,-3l-16,-5l-17,-3l-16,-4l-17,-3l-16,-5l-17,-3l-16,-3l-17,-4l-16,-3l-17,-5l-16,-5l-17,-4l-16,-3l-17,-1l-16,-2l-17,-4l-16,-4l-17,-4l-16,-3l-17,-3l-16,-3l-17,-3l-17,-3l-16,-2l-17,-2l-16,-3l-17,-3l-16,-1l-17,-3l-16,-3l-17,-3l-16,-3l-17,-2l-16,-2l-17,-1l-16,0l-17,-1l-16,-1l-17,0l-16,-3l-17,-1l-16,-2l-17,0l-16,-2l-17,-1l-16,-2l-17,0l-17,2l-16,0l-17,0l-16,0l-17,0l-16,1l-17,0l-16,1l-17,1l-16,1l-17,1l-16,1l-17,1l-16,3l-17,1l-16,2l-17,2l-16,0l-17,2l-16,1l-17,1l-16,1l-17,1l-16,2l-17,2l-17,3l-16,2l-17,1l-16,2l-17,1l-16,3l-17,1l-16,2l-17,2l-16,1l-17,1l-16,2l-17,2l-16,0l-17,0l-16,0l-17,1l-16,0l-17,0l-16,-1l-17,1l-16,1l-17,1l-17,0l-16,0l-17,0l-16,0l-17,0l-16,-2l-17,0l-16,-2l-17,-2l-16,-2l-17,-4l-16,-1l-17,-1l-16,-2l-17,-3l-16,-3l-17,-3l-16,0l-17,-2l-16,-4l-17,-1l-16,-2l-17,-1l-16,-2l-17,-2l-17,-2l-16,-1l-17,-2l-16,-2l-17,-3l-16,-2l-17,-2l-16,-2l-17,-1l-16,-3l-17,-2l-16,0l-17,0l-16,0l-17,0l-16,1l-17,2l-16,-1l-17,-1l-16,0l-17,0l-16,0l-17,1l-16,0l-17,2l-17,2l-16,0l-17,0l-16,1l-17,0l-16,1l-17,1l-16,1l-17,1l-16,0l-17,0l-16,0l-17,1l-16,0l-17,1l-16,3l-17,3l-16,1l-17,1l-16,0l-17,1l-16,1l-17,0l-17,2l-16,2l-17,1l-16,1l-17,1l-16,2l-17,2l-16,-1l-17,1l-16,2l-17,0l-16,1l-17,1l-16,3l-17,2l-16,0l-17,2l-16,1l-17,3l-16,3l-17,4l-16,3l-17,2l-16,0l-17,2l-17,1l-16,2l-17,4l-16,2l-17,1l-16,1l-17,2l-16,2l-17,4l-16,2l-17,4l-16,2l-17,4l-16,5l-17,2l-16,2l-17,3l-16,3l-17,3l-16,1l-17,2l-16,3l-17,1l-16,4l-17,4l-17,4l-16,2l-17,2l-16,4l-17,3l-16,3l-17,4l-16,4l-17,3l-16,4l-17,4l-16,5l-17,3l-16,3l-17,4l-16,3l-17,3l-16,3l-17,2l-16,4l-17,4l-16,5l-17,4l-17,2l-16,4l-17,6l-16,6l-17,4l-16,5l-17,4l-16,2l-17,3l-16,5l-17,3l-16,3l-17,3l-16,2l-17,3l-16,1l-17,2l-16,1l-17,2l-16,5l-17,5l-16,3l-17,2l-16,2l-17,1l-17,3l-16,3l-17,1l-16,1l-17,1l-16,1l-17,3l-16,2l-17,1l-16,-1l-17,2l-16,1l-17,1l-16,1l-17,1l-16,0l-17,2l-16,2l-17,3l-16,3l-17,1l-16,3l-17,2l-16,0l-17,0l-17,-2l-16,-2l-17,-1l-16,1l-17,0l-16,0l-17,-2l-16,-1l-17,-1l-16,-1l-17,-1Z" fill="#4646b9" fill-opacity="0.188" stroke="none"></path><g clip-path="url(#plot-sample-bounds-scaled-1)"><path stroke-opacity="1.0" d="M758,2411l17,1l16,0l17,2l16,2l17,1l16,1l17,0l16,0l17,1l16,1l17,2l17,0l16,-1l17,-1l16,-2l17,-2l16,-2l17,-1l16,-2l17,-3l16,0l17,0l16,0l17,-1l16,-2l17,-2l16,-1l17,-1l16,-2l17,-3l16,-1l17,-1l16,-1l17,-2l16,-5l17,-4l17,-2l16,-2l17,-2l16,-3l17,-4l16,-4l17,-3l16,-2l17,-1l16,0l17,-2l16,-1l17,-2l16,-2l17,-3l16,-4l17,-5l16,-3l17,-3l16,-3l17,-3l16,-6l17,-5l16,-4l17,-2l17,-4l16,-4l17,-2l16,-3l17,-1l16,-2l17,-3l16,-4l17,-4l16,-5l17,-3l16,-5l17,-3l16,-4l17,-4l16,-5l17,-5l16,-4l17,-5l16,-3l17,-3l16,-3l17,-4l17,-5l16,-4l17,-4l16,-3l17,-1l16,-1l17,-2l16,-4l17,-2l16,-2l17,-5l16,-5l17,-3l16,-4l17,-4l16,-3l17,-3l16,-2l17,-2l16,-2l17,-3l16,-3l17,-4l16,-2l17,-2l17,-1l16,-2l17,-2l16,-3l17,-4l16,-2l17,-2l16,-3l17,-2l16,-1l17,-2l16,-3l17,-2l16,-1l17,-1l16,-2l17,0l16,-2l17,-1l16,-1l17,-1l16,-2l17,-1l16,-2l17,-1l17,0l16,0l17,1l16,0l17,-1l16,-1l17,-2l16,-3l17,-1l16,0l17,-2l16,-1l17,0l16,0l17,-1l16,-1l17,-2l16,-1l17,-1l16,-2l17,-1l16,-1l17,-3l17,-1l16,-2l17,-1l16,0l17,1l16,1l17,0l16,-1l17,-2l16,-2l17,-1l16,0l17,1l16,0l17,1l16,3l17,1l16,2l17,1l16,2l17,2l16,2l17,1l16,2l17,2l17,2l16,1l17,1l16,2l17,2l16,3l17,2l16,3l17,2l16,2l17,2l16,2l17,2l16,2l17,3l16,2l17,1l16,1l17,1l16,1l17,0l16,0l17,0l16,0l17,0l17,0l16,0l17,-1l16,1l17,-1l16,0l17,-1l16,-1l17,0l16,-1l17,-2l16,-1l17,-1l16,-1l17,-2l16,-2l17,-1l16,-2l17,-2l16,-1l17,-2l16,-1l17,-2l17,-3l16,-1l17,-2l16,-1l17,0l16,-1l17,-1l16,0l17,-3l16,-3l17,-1l16,-2l17,0l16,-3l17,-1l16,0l17,-1l16,-1l17,1l16,0l17,0l16,0l17,-1l16,0l17,-1l17,1l16,2l17,2l16,1l17,2l16,2l17,3l16,1l17,2l16,2l17,1l16,0l17,2l16,2l17,4l16,4l17,4l16,5l17,3l16,4l17,4l16,3l17,4l16,3l17,5l17,4l16,5l17,5l16,5l17,5l16,5l17,5l16,4l17,3l16,3l17,5l16,4l17,6l16,5l17,5l16,4l17,5l16,6l17,5l16,4l17,4l16,4l17,3l17,3l16,3l17,4l16,5l17,5l16,4l17,4l16,3l17,4l16,3l17,2l16,3l17,3l16,4l17,3l16,2l17,2l16,3l17,3l16,3l17,3l16,3l17,3l16,4l17,2l17,3l16,3l17,3l16,3l17,3l16,4l17,3l16,3l17,2l16,2l17,2l16,1l17,2l16,1l17,2l16,3l17,2l16,3l17,2l16,1l17,2l16,3l17,2l16,2l17,2l17,3l16,2l17,1l16,1l17,1l16,1l17,1l16,1l17,1l16,2l17,0" stroke-width="20" fill="none" stroke="#4646b9"></path></g><path d="M758,1915l17,4l16,4l17,-2l16,0l17,1l16,1l17,1l16,0l17,-2l16,1l17,2l17,-1l16,3l17,0l16,2l17,1l16,-5l17,-2l16,1l17,4l16,0l17,1l16,0l17,1l16,-4l17,-5l16,-2l17,-8l16,0l17,-5l16,-6l17,-4l16,-3l17,-5l16,-3l17,-5l17,-3l16,2l17,-1l16,-5l17,0l16,-5l17,-1l16,-4l17,-5l16,-3l17,-7l16,0l17,-2l16,-3l17,-5l16,0l17,-1l16,-3l17,-3l16,-2l17,-2l16,-8l17,-6l16,-7l17,-7l17,-5l16,-3l17,-4l16,2l17,-3l16,0l17,-3l16,-7l17,-3l16,-6l17,-9l16,-4l17,-3l16,-7l17,-4l16,-6l17,-2l16,-4l17,-10l16,-6l17,-3l16,-6l17,-5l17,-4l16,-2l17,-2l16,-3l17,2l16,-1l17,2l16,2l17,-1l16,-5l17,-3l16,-3l17,0l16,-3l17,-2l16,-2l17,-2l16,3l17,0l16,0l17,-5l16,1l17,3l16,4l17,0l17,-3l16,3l17,0l16,-3l17,-5l16,-3l17,-5l16,0l17,1l16,0l17,-3l16,-2l17,-2l16,-2l17,0l16,0l17,-1l16,-4l17,-4l16,-3l17,-1l16,0l17,0l16,-4l17,0l17,1l16,4l17,1l16,-5l17,-1l16,2l17,0l16,-2l17,-1l16,0l17,1l16,-1l17,4l16,-2l17,-5l16,0l17,0l16,3l17,2l16,1l17,1l16,4l17,2l17,2l16,3l17,1l16,3l17,2l16,1l17,3l16,7l17,0l16,1l17,1l16,2l17,1l16,1l17,1l16,2l17,4l16,4l17,1l16,4l17,0l16,4l17,2l16,-1l17,-1l17,-1l16,-3l17,0l16,2l17,-2l16,-1l17,1l16,1l17,0l16,-1l17,0l16,-1l17,-2l16,-6l17,-2l16,-3l17,-1l16,-1l17,-2l16,0l17,-2l16,-1l17,-2l16,0l17,2l17,-5l16,0l17,-1l16,0l17,0l16,0l17,0l16,0l17,2l16,-2l17,0l16,0l17,-1l16,1l17,0l16,1l17,-1l16,0l17,1l16,3l17,0l16,1l17,3l17,4l16,1l17,1l16,3l17,1l16,0l17,-3l16,-1l17,1l16,2l17,1l16,4l17,2l16,2l17,4l16,5l17,1l16,2l17,1l16,3l17,3l16,1l17,3l16,5l17,5l17,6l16,3l17,4l16,4l17,2l16,3l17,3l16,3l17,2l16,3l17,3l16,6l17,4l16,4l17,2l16,3l17,0l16,3l17,2l16,0l17,3l16,0l17,0l16,3l17,4l17,1l16,2l17,1l16,1l17,1l16,3l17,1l16,0l17,3l16,2l17,2l16,4l17,1l16,1l17,3l16,2l17,-1l16,2l17,2l16,0l17,6l16,0l17,0l17,-2l16,3l17,2l16,-1l17,2l16,4l17,4l16,0l17,-1l16,-2l17,0l16,4l17,2l16,0l17,0l16,-2l17,0l16,3l17,6l16,1l17,1l16,0l17,4l16,1l17,2l17,-2l16,1l17,2l16,-2l17,2l16,4l17,4l16,2l17,1l16,5l17,1l16,-1l17,-2l16,0l17,2l16,6l17,3l16,-2l17,-1l16,0l17,2l16,1l17,0l16,3l17,1l17,-1l16,-1l17,2l16,-3l17,1l16,1l17,4l16,4l17,4l16,9l17,2l0,-382l-17,-2l-16,-1l-17,0l-16,-2l-17,-2l-16,-3l-17,-2l-16,-2l-17,0l-16,-2l-17,-2l-17,-4l-16,-2l-17,-5l-16,-4l-17,-3l-16,-1l-17,-2l-16,-3l-17,0l-16,-2l-17,0l-16,-3l-17,-4l-16,1l-17,0l-16,0l-17,0l-16,-4l-17,-1l-16,0l-17,-2l-16,-1l-17,-2l-16,-1l-17,0l-17,-2l-16,0l-17,-1l-16,-2l-17,-2l-16,-1l-17,2l-16,-1l-17,-2l-16,0l-17,-2l-16,0l-17,-2l-16,-1l-17,-1l-16,-2l-17,-1l-16,-2l-17,-2l-16,-1l-17,-2l-16,-3l-17,-4l-16,-2l-17,-2l-17,0l-16,-1l-17,-3l-16,-1l-17,-1l-16,0l-17,0l-16,-2l-17,0l-16,-2l-17,-2l-16,0l-17,-3l-16,0l-17,2l-16,0l-17,1l-16,0l-17,-2l-16,0l-17,1l-16,0l-17,0l-17,1l-16,2l-17,0l-16,1l-17,-2l-16,2l-17,2l-16,1l-17,0l-16,0l-17,1l-16,0l-17,0l-16,0l-17,1l-16,2l-17,1l-16,2l-17,3l-16,2l-17,0l-16,0l-17,0l-16,-1l-17,1l-17,1l-16,0l-17,1l-16,1l-17,0l-16,1l-17,-1l-16,0l-17,-1l-16,-1l-17,2l-16,1l-17,-2l-16,-1l-17,-1l-16,-2l-17,-3l-16,0l-17,-1l-16,-1l-17,-2l-16,-1l-17,0l-16,-2l-17,0l-17,0l-16,0l-17,-1l-16,-1l-17,0l-16,-3l-17,-1l-16,0l-17,-2l-16,-1l-17,-3l-16,0l-17,0l-16,-2l-17,-1l-16,-1l-17,1l-16,0l-17,0l-16,0l-17,2l-16,1l-17,2l-17,3l-16,1l-17,0l-16,1l-17,1l-16,1l-17,-1l-16,-1l-17,-1l-16,0l-17,-1l-16,0l-17,-2l-16,2l-17,0l-16,1l-17,0l-16,1l-17,2l-16,0l-17,1l-16,0l-17,-1l-16,-1l-17,-2l-17,-2l-16,-1l-17,-1l-16,-3l-17,-4l-16,-5l-17,-4l-16,-3l-17,-4l-16,-4l-17,-5l-16,-7l-17,-6l-16,-5l-17,-4l-16,-5l-17,-4l-16,-4l-17,-3l-16,-6l-17,-4l-16,-6l-17,-6l-16,-6l-17,-5l-17,-3l-16,-8l-17,-3l-16,-5l-17,-3l-16,-3l-17,-2l-16,-3l-17,-4l-16,-1l-17,-2l-16,-2l-17,-5l-16,-5l-17,-1l-16,-5l-17,-3l-16,0l-17,0l-16,-2l-17,-2l-16,-3l-17,-3l-17,-2l-16,-1l-17,0l-16,-3l-17,1l-16,0l-17,1l-16,-1l-17,-1l-16,1l-17,1l-16,1l-17,-1l-16,1l-17,-1l-16,-2l-17,-1l-16,0l-17,1l-16,0l-17,1l-16,4l-17,1l-16,5l-17,-1l-17,1l-16,1l-17,0l-16,2l-17,4l-16,2l-17,4l-16,3l-17,1l-16,2l-17,0l-16,1l-17,1l-16,1l-17,3l-16,1l-17,2l-16,2l-17,2l-16,3l-17,3l-16,3l-17,3l-16,4l-17,2l-17,6l-16,3l-17,3l-16,4l-17,1l-16,5l-17,4l-16,4l-17,5l-16,1l-17,2l-16,3l-17,4l-16,2l-17,3l-16,5l-17,4l-16,3l-17,4l-16,5l-17,2l-16,3l-17,4l-17,3l-16,4l-17,4l-16,4l-17,6l-16,4l-17,2l-16,4l-17,4l-16,6l-17,3l-16,3l-17,7l-16,3l-17,2l-16,3l-17,3l-16,6l-17,5l-16,3l-17,4l-16,4l-17,4l-16,3l-17,2l-17,4l-16,1l-17,1l-16,5l-17,2l-16,2l-17,2l-16,3l-17,3l-16,2l-17,2l-16,2l-17,3l-16,2l-17,-1l-16,-1l-17,3l-16,1l-17,1l-16,4l-17,3l-16,3l-17,3l-16,1l-17,1l-17,1l-16,0l-17,0l-16,-1l-17,1l-16,2l-17,-2l-16,1l-17,-1l-16,0l-17,0Z" fill="#ba4545" fill-opacity="0.188" stroke="none"></path><path d="M758,1795l17,2l16,0l17,0l16,1l17,1l16,1l17,1l16,0l17,-2l16,1l17,2l17,-2l16,-3l17,4l16,0l17,-4l16,-2l17,-1l16,0l17,0l16,3l17,-1l16,1l17,-3l16,0l17,-3l16,-3l17,-4l16,-5l17,-6l16,-3l17,-4l16,-3l17,-6l16,-5l17,-5l17,-4l16,-5l17,-4l16,-1l17,-3l16,-2l17,-2l16,-3l17,-7l16,-4l17,-3l16,-3l17,-4l16,-4l17,-4l16,-2l17,0l16,-5l17,-1l16,-4l17,-2l16,-6l17,-6l16,0l17,-4l17,-8l16,-1l17,-1l16,-1l17,0l16,-2l17,-2l16,-3l17,-4l16,-4l17,-7l16,-6l17,-2l16,-3l17,-4l16,-5l17,-4l16,-4l17,-4l16,-4l17,-5l16,-3l17,-5l17,-5l16,-3l17,-3l16,-3l17,-2l16,1l17,-3l16,1l17,0l16,-2l17,-3l16,-2l17,-3l16,-1l17,-1l16,-3l17,-3l16,-2l17,-1l16,0l17,-3l16,-2l17,0l16,0l17,1l17,1l16,0l17,-3l16,-2l17,-2l16,-4l17,-1l16,0l17,0l16,0l17,0l16,-6l17,1l16,-1l17,2l16,0l17,-2l16,0l17,-1l16,-1l17,-2l16,2l17,1l16,1l17,1l17,1l16,1l17,3l16,0l17,3l16,0l17,0l16,0l17,1l16,1l17,1l16,1l17,2l16,2l17,1l16,1l17,1l16,4l17,1l16,1l17,1l16,3l17,3l17,1l16,2l17,4l16,2l17,3l16,3l17,3l16,4l17,2l16,3l17,2l16,1l17,1l16,3l17,3l16,3l17,5l16,5l17,2l16,2l17,1l16,2l17,1l16,1l17,0l17,0l16,-1l17,1l16,2l17,-1l16,0l17,1l16,0l17,1l16,1l17,-1l16,-2l17,-1l16,-2l17,-1l16,-2l17,-2l16,0l17,-1l16,-2l17,-2l16,-2l17,-1l16,-1l17,-1l17,-2l16,-1l17,-1l16,-1l17,-1l16,1l17,0l16,0l17,-1l16,-1l17,-1l16,0l17,1l16,1l17,0l16,-1l17,-1l16,1l17,1l16,0l17,1l16,1l17,2l17,3l16,3l17,1l16,2l17,1l16,-2l17,-1l16,1l17,1l16,1l17,2l16,4l17,1l16,2l17,1l16,1l17,2l16,1l17,0l16,1l17,1l16,3l17,1l16,5l17,4l17,3l16,2l17,4l16,2l17,3l16,0l17,1l16,1l17,2l16,0l17,3l16,4l17,1l16,0l17,2l16,3l17,0l16,0l17,-1l16,0l17,4l16,4l17,1l16,0l17,2l17,1l16,1l17,1l16,1l17,1l16,0l17,1l16,1l17,0l16,2l17,1l16,1l17,1l16,3l17,1l16,3l17,2l16,1l17,2l16,4l17,3l16,0l17,3l17,2l16,4l17,0l16,-1l17,0l16,3l17,4l16,2l17,3l16,0l17,-1l16,2l17,-1l16,1l17,-1l16,0l17,1l16,3l17,3l16,2l17,3l16,-2l17,4l16,3l17,2l17,-2l16,2l17,0l16,-1l17,0l16,1l17,2l16,1l17,4l16,4l17,0l16,-1l17,0l16,0l17,2l16,3l17,4l16,-1l17,1l16,2l17,3l16,1l17,2l16,2l17,1l17,3l16,-2l17,-1l16,-1l17,-1l16,-1l17,2l16,3l17,4l16,6l17,3l0,-198l-17,-3l-16,-3l-17,-1l-16,-3l-17,0l-16,0l-17,-2l-16,-2l-17,0l-16,-2l-17,-2l-17,-2l-16,-3l-17,-3l-16,-2l-17,-3l-16,-2l-17,-1l-16,0l-17,0l-16,-2l-17,-3l-16,-2l-17,-3l-16,-2l-17,-1l-16,0l-17,-1l-16,-3l-17,-2l-16,-2l-17,-2l-16,0l-17,-1l-16,0l-17,-1l-17,-1l-16,-2l-17,1l-16,0l-17,-1l-16,-2l-17,1l-16,-2l-17,-1l-16,-1l-17,0l-16,-1l-17,-1l-16,-1l-17,-1l-16,-2l-17,-1l-16,-2l-17,-2l-16,-2l-17,-1l-16,-3l-17,-4l-16,0l-17,-1l-17,1l-16,0l-17,-2l-16,-3l-17,-1l-16,-1l-17,-1l-16,2l-17,-3l-16,-3l-17,-2l-16,-1l-17,-3l-16,0l-17,2l-16,1l-17,0l-16,1l-17,0l-16,0l-17,1l-16,0l-17,0l-17,0l-16,0l-17,1l-16,-1l-17,0l-16,1l-17,2l-16,0l-17,-2l-16,0l-17,2l-16,0l-17,0l-16,-1l-17,1l-16,1l-17,0l-16,3l-17,0l-16,1l-17,1l-16,0l-17,-2l-16,0l-17,0l-17,0l-16,-1l-17,-1l-16,0l-17,1l-16,0l-17,0l-16,1l-17,-1l-16,0l-17,1l-16,0l-17,-3l-16,-2l-17,0l-16,-1l-17,-1l-16,1l-17,-1l-16,-1l-17,-3l-16,-1l-17,0l-16,-2l-17,0l-17,-1l-16,-1l-17,-1l-16,-1l-17,-1l-16,0l-17,-1l-16,-1l-17,-1l-16,-2l-17,0l-16,-1l-17,-1l-16,-2l-17,1l-16,0l-17,-2l-16,0l-17,0l-16,2l-17,1l-16,1l-17,0l-17,0l-16,1l-17,2l-16,2l-17,0l-16,0l-17,1l-16,0l-17,-2l-16,-1l-17,-1l-16,0l-17,1l-16,0l-17,-1l-16,1l-17,1l-16,0l-17,0l-16,-1l-17,2l-16,2l-17,0l-16,0l-17,0l-17,-1l-16,-1l-17,-2l-16,-1l-17,-3l-16,-3l-17,-3l-16,-3l-17,-5l-16,-3l-17,-4l-16,-5l-17,-5l-16,-4l-17,-2l-16,-2l-17,-3l-16,-5l-17,-5l-16,-4l-17,-4l-16,-4l-17,-4l-16,-5l-17,-4l-17,-4l-16,-4l-17,-4l-16,-6l-17,-3l-16,-3l-17,-4l-16,-2l-17,-3l-16,-4l-17,0l-16,-4l-17,-2l-16,-5l-17,-2l-16,-2l-17,-2l-16,0l-17,-1l-16,-1l-17,-3l-16,-1l-17,-2l-17,-1l-16,0l-17,-1l-16,-1l-17,-1l-16,0l-17,0l-16,1l-17,-1l-16,-1l-17,1l-16,0l-17,0l-16,0l-17,1l-16,-1l-17,-1l-16,-1l-17,-1l-16,0l-17,3l-16,3l-17,1l-16,2l-17,-1l-17,0l-16,1l-17,0l-16,1l-17,1l-16,2l-17,1l-16,1l-17,0l-16,2l-17,3l-16,1l-17,1l-16,3l-17,5l-16,1l-17,1l-16,1l-17,1l-16,2l-17,1l-16,2l-17,6l-16,4l-17,4l-17,4l-16,3l-17,2l-16,4l-17,3l-16,4l-17,3l-16,4l-17,4l-16,4l-17,3l-16,3l-17,5l-16,5l-17,4l-16,3l-17,1l-16,4l-17,2l-16,2l-17,2l-16,3l-17,4l-17,3l-16,4l-17,4l-16,4l-17,4l-16,2l-17,2l-16,3l-17,5l-16,5l-17,4l-16,3l-17,6l-16,2l-17,4l-16,4l-17,2l-16,2l-17,4l-16,2l-17,4l-16,4l-17,3l-16,4l-17,2l-17,5l-16,3l-17,2l-16,1l-17,2l-16,4l-17,3l-16,4l-17,5l-16,0l-17,4l-16,2l-17,2l-16,1l-17,0l-16,-2l-17,0l-16,2l-17,1l-16,4l-17,2l-16,1l-17,1l-16,2l-17,1l-17,0l-16,-2l-17,0l-16,1l-17,2l-16,2l-17,0l-16,0l-17,0l-16,0l-17,0Z" fill="#ba4545" fill-opacity="0.188" stroke="none"></path><g clip-path="url(#plot-sample-bounds-scaled-1)"><path stroke-opacity="1.0" d="M758,1704l17,1l16,1l17,1l16,1l17,0l16,-1l17,0l16,0l17,-1l16,1l17,1l17,-1l16,-1l17,-2l16,0l17,-2l16,-4l17,-1l16,-2l17,0l16,2l17,0l16,-1l17,-1l16,-3l17,-2l16,-2l17,-3l16,-5l17,-4l16,-2l17,-5l16,-2l17,-5l16,-2l17,-4l17,-3l16,-3l17,-3l16,-3l17,-3l16,-3l17,-3l16,-3l17,-3l16,-3l17,-5l16,-2l17,-4l16,-5l17,-3l16,-4l17,-2l16,-3l17,-2l16,-3l17,-4l16,-5l17,-5l16,-3l17,-4l17,-6l16,-1l17,-2l16,-1l17,-2l16,-3l17,-3l16,-3l17,-4l16,-4l17,-6l16,-4l17,-3l16,-3l17,-4l16,-5l17,-3l16,-4l17,-5l16,-3l17,-4l16,-4l17,-4l17,-4l16,-5l17,-4l16,-3l17,0l16,0l17,-2l16,0l17,0l16,-3l17,-4l16,-3l17,-2l16,-1l17,-2l16,-3l17,-2l16,-1l17,-1l16,-1l17,-4l16,-1l17,0l16,0l17,0l17,-1l16,-1l17,-1l16,-3l17,-2l16,-2l17,-2l16,0l17,2l16,0l17,-2l16,-2l17,0l16,-1l17,0l16,0l17,0l16,0l17,-1l16,-1l17,0l16,2l17,0l16,1l17,1l17,1l16,3l17,3l16,0l17,1l16,2l17,2l16,1l17,0l16,3l17,3l16,2l17,2l16,2l17,0l16,2l17,3l16,2l17,3l16,2l17,4l16,3l17,4l17,2l16,4l17,4l16,4l17,3l16,4l17,3l16,4l17,3l16,2l17,2l16,3l17,3l16,3l17,4l16,3l17,4l16,4l17,2l16,4l17,2l16,2l17,2l16,1l17,1l17,0l16,0l17,0l16,0l17,-1l16,0l17,1l16,-1l17,0l16,0l17,0l16,-1l17,-1l16,-2l17,-1l16,0l17,0l16,0l17,0l16,-1l17,-1l16,-2l17,-2l16,0l17,0l17,-2l16,-1l17,-2l16,-1l17,0l16,0l17,0l16,0l17,0l16,0l17,0l16,1l17,0l16,1l17,1l16,1l17,0l16,1l17,1l16,0l17,0l16,1l17,2l17,1l16,2l17,0l16,2l17,2l16,0l17,0l16,-1l17,2l16,1l17,0l16,3l17,2l16,1l17,0l16,1l17,1l16,1l17,0l16,0l17,1l16,2l17,0l16,2l17,3l17,1l16,2l17,2l16,2l17,0l16,0l17,0l16,0l17,1l16,0l17,1l16,3l17,1l16,0l17,2l16,2l17,1l16,0l17,-1l16,-1l17,2l16,1l17,0l16,0l17,1l17,1l16,1l17,0l16,1l17,1l16,0l17,0l16,1l17,-1l16,1l17,3l16,1l17,2l16,1l17,2l16,1l17,1l16,1l17,1l16,3l17,2l16,0l17,0l17,1l16,3l17,2l16,1l17,1l16,3l17,2l16,2l17,2l16,0l17,0l16,2l17,0l16,0l17,1l16,0l17,1l16,2l17,2l16,1l17,2l16,0l17,1l16,2l17,0l17,0l16,1l17,1l16,-1l17,2l16,2l17,2l16,2l17,2l16,1l17,1l16,0l17,2l16,1l17,2l16,3l17,2l16,1l17,0l16,1l17,4l16,2l17,3l16,2l17,2l17,3l16,0l17,1l16,0l17,0l16,1l17,3l16,2l17,2l16,4l17,3" stroke-width="20" fill="none" stroke="#ba4545"></path></g><g clip-path="url(#plot-sample-bounds-scaled-1)"><path stroke-opacity="1.0" d="M758,2503l17,1l16,1l17,2l16,2l17,2l16,1l17,1l16,1l17,1l16,2l17,2l17,0l16,-1l17,-1l16,-2l17,0l16,-2l17,-2l16,-2l17,-2l16,0l17,-1l16,-1l17,0l16,-2l17,-2l16,0l17,-2l16,-2l17,-3l16,-2l17,-2l16,-1l17,-2l16,-6l17,-5l17,-2l16,-2l17,-3l16,-4l17,-4l16,-4l17,-3l16,-3l17,-2l16,0l17,-2l16,-1l17,-2l16,-3l17,-5l16,-4l17,-5l16,-4l17,-4l16,-3l17,-4l16,-8l17,-7l16,-4l17,-3l17,-5l16,-4l17,-3l16,-3l17,-1l16,-3l17,-5l16,-5l17,-5l16,-6l17,-5l16,-6l17,-5l16,-5l17,-4l16,-7l17,-6l16,-6l17,-5l16,-5l17,-4l16,-3l17,-5l17,-6l16,-5l17,-6l16,-4l17,-1l16,-2l17,-3l16,-5l17,-3l16,-4l17,-6l16,-6l17,-5l16,-4l17,-5l16,-5l17,-3l16,-2l17,-2l16,-4l17,-3l16,-4l17,-5l16,-2l17,-3l17,-2l16,-3l17,-3l16,-3l17,-5l16,-2l17,-4l16,-3l17,-2l16,-2l17,-3l16,-3l17,-2l16,-2l17,-1l16,-3l17,0l16,-2l17,-1l16,-2l17,-1l16,-2l17,-2l16,-2l17,-2l17,0l16,0l17,1l16,0l17,-1l16,-1l17,-2l16,-3l17,-2l16,0l17,-2l16,-2l17,1l16,-1l17,-1l16,-1l17,-2l16,-2l17,-2l16,-1l17,-2l16,-1l17,-3l17,-3l16,-2l17,-1l16,0l17,0l16,1l17,-1l16,-1l17,-2l16,-3l17,-1l16,0l17,0l16,1l17,0l16,2l17,2l16,1l17,2l16,2l17,2l16,2l17,1l16,1l17,3l17,2l16,1l17,1l16,2l17,2l16,3l17,3l16,2l17,2l16,3l17,1l16,3l17,2l16,2l17,3l16,2l17,1l16,1l17,1l16,1l17,1l16,-1l17,1l16,0l17,-1l17,0l16,0l17,-1l16,1l17,-1l16,-1l17,0l16,-1l17,0l16,-1l17,-2l16,-2l17,-1l16,-2l17,-1l16,-2l17,-1l16,-3l17,-1l16,-2l17,-2l16,-1l17,-3l17,-2l16,-1l17,-2l16,-2l17,1l16,0l17,-1l16,-1l17,-2l16,-4l17,-1l16,-2l17,0l16,-3l17,-1l16,0l17,-1l16,0l17,1l16,0l17,0l16,1l17,0l16,0l17,-1l17,1l16,3l17,3l16,2l17,3l16,3l17,2l16,3l17,2l16,3l17,0l16,1l17,2l16,2l17,5l16,5l17,6l16,5l17,5l16,4l17,5l16,4l17,4l16,5l17,5l17,7l16,5l17,6l16,6l17,6l16,7l17,5l16,4l17,4l16,5l17,5l16,5l17,7l16,6l17,6l16,5l17,6l16,7l17,7l16,5l17,4l16,6l17,4l17,2l16,4l17,6l16,4l17,7l16,6l17,5l16,3l17,5l16,3l17,3l16,4l17,4l16,4l17,4l16,2l17,3l16,4l17,2l16,4l17,4l16,3l17,4l16,5l17,3l17,4l16,4l17,4l16,4l17,3l16,5l17,4l16,3l17,3l16,3l17,1l16,3l17,2l16,2l17,2l16,3l17,4l16,3l17,3l16,1l17,2l16,4l17,2l16,3l17,2l17,3l16,3l17,2l16,2l17,2l16,1l17,1l16,1l17,2l16,2l17,1" stroke-dasharray="10 20" stroke-width="10" fill="none" stroke="#4646b9"></path></g><g clip-path="url(#plot-sample-bounds-scaled-1)"><path stroke-opacity="1.0" d="M758,1728l17,2l16,2l17,1l16,0l17,1l16,-2l17,0l16,0l17,-1l16,1l17,1l17,0l16,-2l17,-1l16,-1l17,-1l16,-5l17,-1l16,-1l17,0l16,1l17,0l16,0l17,-2l16,-2l17,-2l16,-2l17,-4l16,-4l17,-3l16,-4l17,-3l16,-3l17,-4l16,-3l17,-4l17,-2l16,-3l17,-3l16,-4l17,-2l16,-3l17,-3l16,-3l17,-3l16,-4l17,-3l16,-3l17,-3l16,-5l17,-3l16,-4l17,-2l16,-3l17,-2l16,-3l17,-3l16,-5l17,-6l16,-3l17,-3l17,-6l16,-2l17,-2l16,-1l17,-1l16,-4l17,-2l16,-4l17,-3l16,-5l17,-6l16,-4l17,-2l16,-4l17,-3l16,-5l17,-4l16,-4l17,-4l16,-4l17,-3l16,-5l17,-4l17,-4l16,-4l17,-5l16,-2l17,-1l16,0l17,-2l16,0l17,-1l16,-2l17,-5l16,-3l17,-2l16,-1l17,-2l16,-4l17,-1l16,-1l17,-2l16,-1l17,-3l16,-2l17,-1l16,1l17,-1l17,-1l16,0l17,-1l16,-3l17,-2l16,-3l17,-1l16,-1l17,2l16,-1l17,-2l16,-1l17,-1l16,-1l17,0l16,0l17,0l16,0l17,-2l16,0l17,-1l16,1l17,1l16,0l17,1l17,2l16,1l17,3l16,1l17,1l16,1l17,1l16,1l17,1l16,3l17,1l16,2l17,3l16,1l17,0l16,2l17,3l16,2l17,3l16,2l17,3l16,3l17,3l17,2l16,4l17,4l16,4l17,2l16,4l17,3l16,4l17,2l16,3l17,2l16,3l17,2l16,4l17,2l16,4l17,4l16,4l17,3l16,2l17,3l16,3l17,0l16,2l17,0l17,1l16,-1l17,1l16,0l17,0l16,0l17,1l16,-1l17,-1l16,0l17,1l16,-1l17,-1l16,-1l17,0l16,-1l17,0l16,0l17,-1l16,0l17,-1l16,-2l17,-1l16,-1l17,-1l17,-1l16,-2l17,-1l16,0l17,0l16,0l17,0l16,0l17,0l16,0l17,0l16,0l17,0l16,1l17,1l16,0l17,0l16,1l17,1l16,1l17,1l16,0l17,1l17,1l16,2l17,1l16,1l17,2l16,0l17,-1l16,0l17,1l16,1l17,2l16,1l17,2l16,2l17,0l16,1l17,1l16,0l17,0l16,0l17,1l16,1l17,2l16,2l17,1l17,2l16,2l17,2l16,1l17,1l16,1l17,0l16,1l17,0l16,1l17,0l16,3l17,1l16,1l17,1l16,2l17,1l16,0l17,0l16,-1l17,2l16,2l17,0l16,0l17,1l17,1l16,1l17,1l16,1l17,1l16,0l17,0l16,0l17,0l16,2l17,3l16,1l17,1l16,2l17,2l16,1l17,1l16,1l17,3l16,2l17,2l16,0l17,1l17,1l16,2l17,2l16,1l17,2l16,3l17,2l16,2l17,2l16,0l17,1l16,1l17,2l16,0l17,0l16,0l17,1l16,2l17,2l16,1l17,3l16,-1l17,2l16,2l17,0l17,0l16,1l17,2l16,-1l17,2l16,2l17,2l16,2l17,2l16,1l17,1l16,0l17,2l16,2l17,1l16,4l17,1l16,0l17,1l16,2l17,3l16,2l17,3l16,3l17,2l17,2l16,0l17,0l16,0l17,2l16,1l17,2l16,2l17,2l16,4l17,3" stroke-dasharray="10 20" stroke-width="10" fill="none" stroke="#ba4545"></path></g><line stroke-opacity="0.25098039215686274" y1="2624.5" x1="750" y2="2624.5" x2="6780" stroke-width="10" fill="none" stroke="#000"></line></g><g><rect x="217.2" width="120.6" y="5" fill="#f00" fill-opacity="0.063" stroke="none" height="380"></rect><text text-anchor="middle" x="277.5" y="23.7">calurosos</text></g><g><rect x="629.9" width="48.1" y="5" fill="#00f" fill-opacity="0.063" stroke="none" height="380"></rect></g><g><rect x="75" width="62.6" y="5" fill="#00f" fill-opacity="0.063" stroke="none" height="380"></rect><text text-anchor="middle" x="106.3" y="23.7">frescos</text></g><g transform="scale(0.1)"></g><g stroke-opacity="0.072" stroke-width="1" fill="none" stroke="#000"><line stroke-opacity="0.12" y1="30" x1="126.2" y2="390" x2="126.2"></line><line stroke-opacity="0.12" y1="30" x1="172.5" y2="390" x2="172.5"></line><line stroke-opacity="0.12" y1="30" x1="223.7" y2="390" x2="223.7"></line><line stroke-opacity="0.12" y1="30" x1="273.2" y2="390" x2="273.2"></line><line stroke-opacity="0.12" y1="30" x1="324.5" y2="390" x2="324.5"></line><line stroke-opacity="0.12" y1="30" x1="374" y2="390" x2="374"></line><line stroke-opacity="0.12" y1="30" x1="425.2" y2="390" x2="425.2"></line><line stroke-opacity="0.12" y1="30" x1="476.4" y2="390" x2="476.4"></line><line stroke-opacity="0.12" y1="30" x1="526" y2="390" x2="526"></line><line stroke-opacity="0.12" y1="30" x1="577.2" y2="390" x2="577.2"></line><line stroke-opacity="0.12" y1="30" x1="626.8" y2="390" x2="626.8"></line><line y1="372.2" x1="72" y2="372.2" x2="681"></line><line y1="344.7" x1="72" y2="344.7" x2="681"></line><line y1="317.3" x1="72" y2="317.3" x2="681"></line><line y1="289.8" x1="72" y2="289.8" x2="681"></line><line y1="262.4" x1="72" y2="262.4" x2="681"></line><line y1="234.9" x1="72" y2="234.9" x2="681"></line><line y1="207.5" x1="72" y2="207.5" x2="681"></line><line y1="180.1" x1="72" y2="180.1" x2="681"></line><line y1="152.6" x1="72" y2="152.6" x2="681"></line><line y1="125.2" x1="72" y2="125.2" x2="681"></line><line y1="97.7" x1="72" y2="97.7" x2="681"></line><line y1="70.3" x1="72" y2="70.3" x2="681"></line><line y1="42.8" x1="72" y2="42.8" x2="681"></line></g><g><rect x="75" width="51.2" y="30" fill="#fff" fill-opacity="0.004" height="355"></rect><text text-anchor="middle" x="100.6" y="400.7" stroke="none">ene.</text></g><g><rect x="126.2" width="46.3" y="30" fill="#fff" fill-opacity="0.004" height="355"></rect><text text-anchor="middle" x="149.3" y="400.7" stroke="none">feb.</text></g><g><rect x="172.5" width="51.2" y="30" fill="#fff" fill-opacity="0.004" height="355"></rect><text text-anchor="middle" x="198.1" y="400.7" stroke="none">mar.</text></g><g><rect x="223.7" width="49.6" y="30" fill="#fff" fill-opacity="0.004" height="355"></rect><text text-anchor="middle" x="248.5" y="400.7" stroke="none">abr.</text></g><g><rect x="273.2" width="51.2" y="30" fill="#fff" fill-opacity="0.004" height="355"></rect><text text-anchor="middle" x="298.9" y="400.7" stroke="none">may.</text></g><g><rect x="324.5" width="49.6" y="30" fill="#fff" fill-opacity="0.004" height="355"></rect><text text-anchor="middle" x="349.2" y="400.7" stroke="none">jun.</text></g><g><rect x="374" width="51.2" y="30" fill="#fff" fill-opacity="0.004" height="355"></rect><text text-anchor="middle" x="399.6" y="400.7" stroke="none">jul.</text></g><g><rect x="425.2" width="51.2" y="30" fill="#fff" fill-opacity="0.004" height="355"></rect><text text-anchor="middle" x="450.8" y="400.7" stroke="none">ago.</text></g><g><rect x="476.4" width="49.6" y="30" fill="#fff" fill-opacity="0.004" height="355"></rect><text text-anchor="middle" x="501.2" y="400.7" stroke="none">sep.</text></g><g><rect x="526" width="51.2" y="30" fill="#fff" fill-opacity="0.004" height="355"></rect><text text-anchor="middle" x="551.6" y="400.7" stroke="none">oct.</text></g><g><rect x="577.2" width="49.6" y="30" fill="#fff" fill-opacity="0.004" height="355"></rect><text text-anchor="middle" x="602" y="400.7" stroke="none">nov.</text></g><g><rect x="626.8" width="51.2" y="30" fill="#fff" fill-opacity="0.004" height="355"></rect><text text-anchor="middle" x="652.4" y="400.7" stroke="none">dic.</text></g><g fill="#666" stroke="none"><text text-anchor="end" x="71" y="377.2">-20 °C</text><text x="682" y="377.2">-20 °C</text><text text-anchor="end" x="71" y="349.8">-15 °C</text><text x="682" y="349.8">-15 °C</text><text text-anchor="end" x="71" y="322.3">-10 °C</text><text x="682" y="322.3">-10 °C</text><text text-anchor="end" x="71" y="294.9">-5 °C</text><text x="682" y="294.9">-5 °C</text><text text-anchor="end" x="71" y="267.4">0 °C</text><text x="682" y="267.4">0 °C</text><text text-anchor="end" x="71" y="240">5 °C</text><text x="682" y="240">5 °C</text><text text-anchor="end" x="71" y="212.5">10 °C</text><text x="682" y="212.5">10 °C</text><text text-anchor="end" x="71" y="185.1">15 °C</text><text x="682" y="185.1">15 °C</text><text text-anchor="end" x="71" y="157.6">20 °C</text><text x="682" y="157.6">20 °C</text><text text-anchor="end" x="71" y="130.2">25 °C</text><text x="682" y="130.2">25 °C</text><text text-anchor="end" x="71" y="102.7">30 °C</text><text x="682" y="102.7">30 °C</text><text text-anchor="end" x="71" y="75.3">35 °C</text><text x="682" y="75.3">35 °C</text><text text-anchor="end" x="71" y="47.8">40 °C</text><text x="682" y="47.8">40 °C</text></g><g font-weight="normal" text-decoration="none" font-size="15" font-family="sans-serif" font-style="normal"><g font-weight="normal" text-decoration="none" font-size="15" font-family="sans-serif" font-style="normal" stroke="none"><g stroke-linejoin="bevel" stroke-width="4" opacity="0.4" fill="#fff" stroke="#fff"><text text-anchor="middle" x="99.8" y="143.9">13 ene</text><text text-anchor="middle" x="99.8" y="162.4">17 °C</text></g><text text-anchor="middle" x="99.8" y="143.9">13 ene</text><text text-anchor="middle" x="99.8" y="162.4">17 °C</text></g></g><circle r="2" cx="95.7" cy="170.7" fill="#000" stroke="none"></circle><g font-weight="normal" text-decoration="none" font-size="15" font-family="sans-serif" font-style="normal"><g font-weight="normal" text-decoration="none" font-size="15" font-family="sans-serif" font-style="normal" stroke="none"><g stroke-linejoin="bevel" stroke-width="4" opacity="0.4" fill="#fff" stroke="#fff"><text text-anchor="middle" x="288.9" y="117">10 may</text><text text-anchor="middle" x="288.9" y="135.5">22 °C</text></g><text text-anchor="middle" x="288.9" y="117">10 may</text><text text-anchor="middle" x="288.9" y="135.5">22 °C</text></g></g><circle r="2" cx="288.9" cy="142.8" fill="#000" stroke="none"></circle><g font-weight="normal" text-decoration="none" font-size="15" font-family="sans-serif" font-style="normal"><g font-weight="normal" text-decoration="none" font-size="15" font-family="sans-serif" font-style="normal" stroke="none"><g opacity="0.4"><text text-anchor="middle" x="95.7" y="259.5" stroke-linejoin="bevel" stroke-width="4" fill="#fff" stroke="#fff">4 °C</text></g><text text-anchor="middle" x="95.7" y="259.5">4 °C</text></g></g><circle r="2" cx="95.7" cy="242.2" fill="#000" stroke="none"></circle><g font-weight="normal" text-decoration="none" font-size="15" font-family="sans-serif" font-style="normal"><g font-weight="normal" text-decoration="none" font-size="15" font-family="sans-serif" font-style="normal" stroke="none"><g opacity="0.4"><text text-anchor="middle" x="288.9" y="228.9" stroke-linejoin="bevel" stroke-width="4" fill="#fff" stroke="#fff">9 °C</text></g><text text-anchor="middle" x="288.9" y="228.9">9 °C</text></g></g><circle r="2" cx="288.9" cy="211.6" fill="#000" stroke="none"></circle><g font-weight="normal" text-decoration="none" font-size="15" font-family="sans-serif" font-style="normal"><g font-weight="normal" text-decoration="none" font-size="15" font-family="sans-serif" font-style="normal" stroke="none"><g stroke-linejoin="bevel" stroke-width="4" opacity="0.4" fill="#fff" stroke="#fff"><text text-anchor="middle" x="217.2" y="122.6">28 mar</text><text text-anchor="middle" x="217.2" y="141.1">21 °C</text></g><text text-anchor="middle" x="217.2" y="122.6">28 mar</text><text text-anchor="middle" x="217.2" y="141.1">21 °C</text></g></g><circle r="2" cx="217.2" cy="148.4" fill="#000" stroke="none"></circle><g font-weight="normal" text-decoration="none" font-size="15" font-family="sans-serif" font-style="normal"><g font-weight="normal" text-decoration="none" font-size="15" font-family="sans-serif" font-style="normal" stroke="none"><g stroke-linejoin="bevel" stroke-width="4" opacity="0.4" fill="#fff" stroke="#fff"><text text-anchor="middle" x="629.9" y="139.3">2 dic</text><text text-anchor="middle" x="629.9" y="157.9">18 °C</text></g><text text-anchor="middle" x="629.9" y="139.3">2 dic</text><text text-anchor="middle" x="629.9" y="157.9">18 °C</text></g></g><circle r="2" cx="629.9" cy="165.2" fill="#000" stroke="none"></circle><g font-weight="normal" text-decoration="none" font-size="15" font-family="sans-serif" font-style="normal"><g font-weight="normal" text-decoration="none" font-size="15" font-family="sans-serif" font-style="normal" stroke="none"><g opacity="0.4"><text text-anchor="middle" x="217.2" y="239.6" stroke-linejoin="bevel" stroke-width="4" fill="#fff" stroke="#fff">7 °C</text></g><text text-anchor="middle" x="217.2" y="239.6">7 °C</text></g></g><circle r="2" cx="217.2" cy="222.3" fill="#000" stroke="none"></circle><g font-weight="normal" text-decoration="none" font-size="15" font-family="sans-serif" font-style="normal"><g font-weight="normal" text-decoration="none" font-size="15" font-family="sans-serif" font-style="normal" stroke="none"><g opacity="0.4"><text text-anchor="middle" x="337.8" y="225.8" stroke-linejoin="bevel" stroke-width="4" fill="#fff" stroke="#fff">10 °C</text></g><text text-anchor="middle" x="337.8" y="225.8">10 °C</text></g></g><circle r="2" cx="337.8" cy="208.5" fill="#000" stroke="none"></circle><g font-weight="normal" text-decoration="none" font-size="15" font-family="sans-serif" font-style="normal"><g font-weight="normal" text-decoration="none" font-size="15" font-family="sans-serif" font-style="normal" stroke="none"><g opacity="0.4"><text text-anchor="middle" x="629.9" y="253.2" stroke-linejoin="bevel" stroke-width="4" fill="#fff" stroke="#fff">5 °C</text></g><text text-anchor="middle" x="629.9" y="253.2">5 °C</text></g></g><circle r="2" cx="629.9" cy="235.9" fill="#000" stroke="none"></circle><g font-weight="normal" text-decoration="none" font-size="15" font-family="sans-serif" font-style="normal"><g font-weight="normal" text-decoration="none" font-size="15" font-family="sans-serif" font-style="normal" stroke="none"><g opacity="0.4"><text text-anchor="middle" x="137.6" y="255.3" stroke-linejoin="bevel" stroke-width="4" fill="#fff" stroke="#fff">4 °C</text></g><text text-anchor="middle" x="137.6" y="255.3">4 °C</text></g></g><circle r="2" cx="137.6" cy="238" fill="#000" stroke="none"></circle></svg>